<!--?xml version="1.0" encoding="utf-8"?-->
<!-- Generator: Adobe Illustrator 18.1.1, SVG Export Plug-In . SVG Version: 6.00 Build 0)  -->

<svg version="1.1" id="_x32_" xmlns="http://www.w3.org/2000/svg" xmlns:xlink="http://www.w3.org/1999/xlink" x="0px" y="0px" viewBox="0 0 512 512" style="width: 32px; height: 32px; opacity: 1;" xml:space="preserve">
<style type="text/css">
	.st0{fill:#4B4B4B;}
</style>
<g>
	<path class="st0" d="M437.021,74.961C390.767,28.69,326.639-0.018,256,0C185.388-0.018,121.233,28.69,74.979,74.961
		C28.68,121.224-0.017,185.388,0,255.991c-0.017,70.621,28.68,134.776,74.979,181.021C121.233,483.31,185.388,512.018,256,512
		c70.638,0.018,134.767-28.69,181.021-74.988c46.281-46.245,74.997-110.4,74.979-181.021
		C512.018,185.388,483.302,121.224,437.021,74.961z M483.648,246.664v21.692l-33.65,0.009l-0.009-21.701H483.648z M429.43,169.923
		l-10.851-18.796l29.142-16.83l10.85,18.778L429.43,169.923z M429.422,345.116l29.15,16.83l-10.85,18.778l-29.142-16.821
		L429.422,345.116z M266.842,451.494v33.667h-21.683v-33.667H266.842z M245.159,63.526V29.868h21.683v33.658H245.159z
		 M362.38,420.094l16.838,29.142l-18.787,10.841l-16.83-29.141L362.38,420.094z M168.417,430.936l-16.847,29.141l-18.787-10.841
		l16.847-29.16L168.417,430.936z M132.784,65.785l18.787-10.842L168.4,84.102l-18.787,10.842L132.784,65.785z M159.896,185.538
		c5.758-7.874,15.962-10.195,22.773-5.19l72.747,50.665l94.227-100.665c5.73-6.431,14.907-7.626,20.496-2.649
		c5.589,4.969,5.492,14.225-0.248,20.664L269.074,267.63c-0.177,0.195-0.372,0.328-0.549,0.522
		c-6.271,6.91-15.696,9.009-22.799,5.05c-0.177-0.08-0.336-0.186-0.514-0.284c-0.381-0.23-0.788-0.389-1.143-0.655l-82.251-63.455
		C154.998,203.802,154.139,193.377,159.896,185.538z M343.601,84.102l16.83-29.158l18.787,10.842l-16.811,29.159L343.601,84.102z
		 M82.588,169.923l-29.159-16.848l10.85-18.778l29.15,16.838L82.588,169.923z M62.02,246.682v21.684l-33.667-0.009v-21.692
		L62.02,246.682z M82.597,345.116l10.851,18.787l-29.169,16.821l-10.85-18.778L82.597,345.116z" style="fill: rgb(255, 255, 255);"></path>
</g>
</svg>
